<svg xmlns="http://www.w3.org/2000/svg" version="1.1" xmlns:xlink="http://www.w3.org/1999/xlink" xmlns:svgjs="http://svgjs.com/svgjs" width="1440" height="560" preserveAspectRatio="none" viewBox="0 0 1440 560">
    <g mask="url(&quot;#SvgjsMask1106&quot;)" fill="none">
        <rect width="1440" height="560" x="0" y="0" fill="url(#SvgjsLinearGradient1107)"></rect>
        <path d="M1440 0L1323.04 0L1440 32.2z" fill="rgba(255, 255, 255, .1)"></path>
        <path d="M1323.04 0L1440 32.2L1440 113.31L1256.5 0z" fill="rgba(255, 255, 255, .075)"></path>
        <path d="M1256.5 0L1440 113.31L1440 261.1L1186.58 0z" fill="rgba(255, 255, 255, .05)"></path>
        <path d="M1186.58 0L1440 261.1L1440 273.33000000000004L985.9999999999999 0z" fill="rgba(255, 255, 255, .025)"></path>
        <path d="M0 560L142.58 560L0 322.11z" fill="rgba(0, 0, 0, .1)"></path>
        <path d="M0 322.11L142.58 560L199.22000000000003 560L0 163.68z" fill="rgba(0, 0, 0, .075)"></path>
        <path d="M0 163.68L199.22000000000003 560L752.45 560L0 160.37z" fill="rgba(0, 0, 0, .05)"></path>
        <path d="M0 160.37L752.45 560L1027.51 560L0 70.9z" fill="rgba(0, 0, 0, .025)"></path>
    </g>
    <defs>
        <mask id="SvgjsMask1106">
            <rect width="1440" height="560" fill="#ffffff"></rect>
        </mask>
        <linearGradient x1="15.28%" y1="-39.29%" x2="84.72%" y2="139.29%" gradientUnits="userSpaceOnUse" id="SvgjsLinearGradient1107">
            <stop stop-color="#0e2a47" offset="0"></stop>
            <stop stop-color="rgba(190, 0, 241, 1)" offset="1"></stop>
        </linearGradient>
    </defs>
</svg>